<?xml version="1.0" standalone="no"?>
<!DOCTYPE svg PUBLIC "-//W3C//DTD SVG 20010904//EN"
 "http://www.w3.org/TR/2001/REC-SVG-20010904/DTD/svg10.dtd">
<svg version="1.0" xmlns="http://www.w3.org/2000/svg"
 width="492.000000pt" height="492.000000pt" viewBox="0 0 492.000000 492.000000"
 preserveAspectRatio="xMidYMid meet">
<metadata>
Created by potrace 1.14, written by Peter Selinger 2001-2017
</metadata>
<g transform="translate(0.000000,492.000000) scale(0.100000,-0.100000)"
fill="#000000" stroke="none">
<path d="M1904 4910 c-104 -21 -193 -93 -241 -195 -24 -51 -28 -73 -28 -145 0
-72 4 -94 28 -145 15 -32 39 -74 53 -92 16 -21 20 -33 12 -33 -7 0 -96 -11
-197 -24 -169 -22 -186 -26 -210 -50 l-26 -26 -3 -212 -3 -211 58 -54 58 -54
5 -505 5 -506 27 -23 c29 -25 32 -26 458 -80 151 -20 352 -45 446 -57 l171
-22 269 33 c874 106 815 96 844 144 19 31 20 54 20 522 l0 490 55 51 55 51 0
214 c0 232 -4 249 -56 269 -13 5 -90 16 -171 25 -81 8 -165 18 -186 21 l-39 6
26 27 c13 14 37 53 53 86 25 53 28 72 28 155 0 120 -23 176 -101 250 -115 109
-251 127 -400 55 -52 -26 -143 -120 -302 -313 -34 -43 -68 -83 -75 -90 -11
-10 -23 1 -67 55 -138 173 -258 306 -300 333 -49 31 -146 61 -195 59 -16 -1
-49 -5 -71 -9z m103 -221 c38 -14 67 -43 189 -186 l104 -122 -38 -7 c-20 -4
-78 -8 -127 -8 -83 -1 -96 2 -158 32 -81 40 -118 87 -124 160 -6 59 25 111 77
129 44 15 43 15 77 2z m1124 -4 c66 -34 86 -114 48 -191 -25 -52 -71 -89 -147
-115 -49 -18 -71 -20 -155 -14 -54 3 -104 8 -112 11 -10 4 10 33 68 97 45 51
101 115 124 143 42 51 91 83 126 84 10 0 31 -7 48 -15z m-528 -516 l37 -10 0
-92 0 -93 -67 9 c-50 7 -88 5 -145 -5 -43 -8 -80 -12 -83 -10 -3 3 -5 47 -5
98 l0 92 73 12 c39 6 77 13 82 14 12 4 55 -2 108 -15z m348 -39 c46 -6 99 -13
117 -16 l32 -5 0 -90 0 -90 -82 7 c-46 3 -101 9 -123 13 l-40 7 -3 92 c-1 50
1 92 6 92 5 0 47 -5 93 -10z m-821 -93 l0 -94 -75 -9 -75 -10 0 93 0 92 33 5
c17 3 48 7 67 9 19 2 38 5 43 5 4 1 7 -40 7 -91z m-380 -41 c0 -97 9 -89 -125
-101 -38 -3 -82 -8 -97 -11 l-28 -6 0 86 0 85 43 6 c23 3 67 9 97 14 30 5 67
9 83 10 l27 1 0 -84z m1670 74 c36 -6 80 -12 98 -15 l32 -6 0 -81 0 -81 -47 6
c-27 4 -81 9 -120 13 l-73 7 0 83 c0 96 -7 92 110 74z m-795 -316 c13 -6 15
-68 13 -523 l-3 -516 -52 -9 c-31 -5 -91 -5 -145 0 l-93 9 0 512 c0 281 2 514
5 517 21 20 228 27 275 10z m-495 -515 l0 -490 -57 6 c-32 3 -68 8 -81 11
l-23 5 7 467 c4 257 8 468 9 469 1 2 33 7 71 12 38 4 70 9 72 10 1 0 2 -220 2
-490z m926 474 l44 -6 -2 -471 -3 -471 -65 -7 c-36 -4 -91 -9 -122 -13 l-58
-6 0 497 0 497 81 -7 c44 -4 101 -9 125 -13z m-1306 -472 l0 -449 -47 5 c-27
3 -54 6 -60 8 -10 4 -13 100 -13 439 l0 435 38 4 c20 2 47 4 60 5 l22 2 0
-449z m1634 443 l46 -7 0 -438 0 -439 -37 0 c-21 0 -48 -3 -60 -6 l-23 -6 0
451 c0 374 2 451 14 451 7 0 34 -3 60 -6z"/>
<path d="M4101 2484 c-89 -32 -188 -114 -248 -206 -26 -38 -37 -45 -47 -29 -3
5 -35 17 -71 26 -148 40 -306 -26 -395 -165 -25 -38 -37 -49 -49 -44 -117 51
-82 49 -721 54 l-595 5 -99 48 c-223 109 -434 123 -648 43 -149 -56 -186 -84
-445 -340 -183 -180 -246 -236 -255 -228 -25 20 -87 31 -123 21 -69 -19 -88
-100 -38 -161 15 -18 238 -245 495 -505 257 -260 468 -476 468 -481 0 -5 -72
-84 -161 -176 -88 -91 -166 -180 -173 -198 -36 -84 57 -174 144 -138 46 19
477 462 485 498 7 36 -22 100 -54 120 -28 16 -26 28 6 49 25 17 84 18 838 23
805 5 810 5 876 27 87 30 179 91 258 172 116 117 834 863 902 936 79 86 102
123 124 199 49 168 -35 355 -193 433 -71 35 -210 43 -281 17z m204 -234 c55
-34 78 -105 55 -165 -6 -15 -67 -86 -138 -159 -853 -884 -895 -926 -962 -959
l-65 -32 -800 -5 -800 -5 -67 -33 c-36 -18 -80 -48 -97 -67 -17 -19 -34 -35
-40 -35 -5 0 -160 155 -346 345 l-337 345 203 205 c228 230 269 264 370 307
159 66 335 59 493 -23 156 -79 93 -73 777 -79 l615 -5 43 -28 c77 -51 101
-151 53 -217 -10 -14 -36 -35 -58 -47 l-39 -23 -545 0 c-329 0 -559 -4 -581
-10 -87 -24 -114 -119 -51 -182 l32 -33 603 0 602 0 66 31 c84 40 137 88 190
172 36 58 340 377 637 669 69 68 116 77 187 33z"/>
</g>
</svg>
